<?xml version="1.0" standalone="no"?>
<!DOCTYPE svg PUBLIC "-//W3C//DTD SVG 20010904//EN"
 "http://www.w3.org/TR/2001/REC-SVG-20010904/DTD/svg10.dtd">
<svg version="1.0" xmlns="http://www.w3.org/2000/svg"
 width="110.000000pt" height="110.000000pt" viewBox="0 0 110.000000 110.000000"
 preserveAspectRatio="xMidYMid meet">
<metadata>
Created by potrace 1.11, written by Peter Selinger 2001-2013
</metadata>
<g transform="translate(0.000000,110.000000) scale(0.100000,-0.100000)"
fill="#000000" stroke="none">
<path d="M125 1001 c1 -56 -3 -88 -8 -84 -6 4 -7 1 -1 -8 13 -21 13 -139 0
-139 -8 0 -8 -3 -1 -8 14 -9 15 -93 2 -85 -6 4 -7 1 -1 -8 12 -19 12 -239 0
-232 -5 4 -6 0 0 -8 4 -8 9 -52 11 -98 1 -46 5 -91 9 -100 6 -15 12 -40 16
-68 1 -7 5 -13 10 -13 4 0 8 -7 8 -15 0 -8 5 -15 10 -15 6 0 10 -5 10 -11 0
-6 6 -16 13 -23 15 -15 80 -61 87 -62 3 0 21 -4 40 -9 139 -34 286 8 374 105
21 23 39 40 41 38 2 -1 6 -30 9 -63 2 -33 5 -60 5 -61 3 -5 221 0 222 5 1 3 2
241 3 529 l1 522 -130 0 -130 0 0 -367 c1 -280 -2 -374 -12 -394 -12 -25 -72
-85 -84 -84 -3 0 -13 -8 -23 -18 -10 -9 -22 -15 -27 -12 -5 4 -9 1 -9 -4 0
-15 -89 -14 -119 2 -14 6 -34 28 -45 47 -20 33 -20 51 -21 432 l0 398 -131 0
-130 0 1 -89z"/>
</g>
</svg>
